<?xml version="1.0" standalone="no"?><!DOCTYPE svg PUBLIC "-//W3C//DTD SVG 1.1//EN" "http://www.w3.org/Graphics/SVG/1.1/DTD/svg11.dtd"><svg class="icon" width="900px" height="900.00px" viewBox="0 0 1024 1024" version="1.1" xmlns="http://www.w3.org/2000/svg"><path d="M479.16 65.37h67.69c103.42-5.48 241.68 13.44 317.45 94.83 81.39 75.78 100.31 214.03 94.83 317.45v67.69c5.48 103.42-13.44 241.68-94.83 317.45-75.77 81.39-214.03 100.31-317.45 94.83h-67.69c-103.42 5.47-241.68-13.44-317.45-94.83-81.4-75.77-100.31-214.02-94.84-317.45v-67.69C61.4 374.23 80.31 235.98 161.7 160.2c75.78-81.38 214.03-100.31 317.46-94.83z" fill="#2FB8D8" /><path d="M509.81 766.98h6.39c12.35 0 22.35 10.01 22.35 22.35v63.87c0 12.35-10.01 22.35-22.35 22.35h-6.39c-12.35 0-22.35-10.01-22.35-22.35v-63.87c-0.01-12.34 10-22.35 22.35-22.35zM414 766.98h6.39c12.35 0 22.35 10.01 22.35 22.35v63.87c0 12.35-10.01 22.35-22.35 22.35H414c-12.35 0-22.35-10.01-22.35-22.35v-63.87c0-12.34 10.01-22.35 22.35-22.35zM605.61 766.98H612c12.35 0 22.35 10.01 22.35 22.35v63.87c0 12.35-10.01 22.35-22.35 22.35h-6.39c-12.35 0-22.35-10.01-22.35-22.35v-63.87c0-12.34 10.01-22.35 22.35-22.35z" fill="#B4EF3E" /><path d="M857.94 404.38c7.09 13.6-81.92 145.38-116.24 145.38-34.32 0-116.63-131.49-113.67-146.87 2.96-15.38 79.14 0.51 79.14 0.51-17.69-91.21-97.79-160.15-194.17-160.15-109.35 0-198 88.64-198 198 0 109.35 88.65 197.99 198 197.99 58.57 0 111.18-25.45 147.43-65.87 0 0 26.71 8.43 40.5 23.09 13.51 14.37 14.11 34.97 14.11 34.97-53.15 51.78-115.04 84.45-202.03 84.45-151.68 0-274.64-122.96-274.64-274.64S361.33 166.6 513.01 166.6c139.01 0 253.82 103.3 272.04 237.31 0 0 65.8-13.12 72.89 0.47z" fill="#FFE475" /></svg>